<svg xmlns="http://www.w3.org/2000/svg" width="500" height="500" viewBox="0 0 500 500" version="1.1"><path d="M 142.366 130.921 L 138.232 132.798 136.453 135.810 L 134.674 138.822 130.394 139.464 L 126.115 140.105 123.307 143.405 L 120.500 146.705 118.797 149.852 L 117.093 153 114.970 153 L 112.846 153 110.004 155.842 L 107.162 158.684 105.869 163.092 L 104.575 167.500 104.621 180.250 L 104.666 193 103.368 193 L 102.070 193 100.915 195.159 L 99.759 197.319 100.309 201.963 L 100.859 206.608 102.559 210.855 L 104.258 215.102 107.011 215.652 L 109.764 216.203 112.514 223.351 L 115.264 230.500 118.133 235.624 L 121.002 240.747 125.479 244.874 L 129.955 249 132.228 248.985 L 134.500 248.969 135.883 248.093 L 137.267 247.217 141.656 250.567 L 146.046 253.918 149.401 254.547 L 152.757 255.177 155.872 253.566 L 158.987 251.955 164.063 253.615 L 169.138 255.275 173.010 254.115 L 176.883 252.955 180.482 248.751 L 184.080 244.546 186.290 237.523 L 188.500 230.500 188.451 213.356 L 188.402 196.211 194.224 195.273 L 200.046 194.336 200.460 196.418 L 200.873 198.500 201.426 205.563 L 201.979 212.627 203.971 218.414 L 205.962 224.202 207.981 227.469 L 210 230.736 210 254.309 L 210 277.882 211.083 278.552 L 212.167 279.221 221.833 280.591 L 231.500 281.961 244.591 281.981 L 257.682 282 266.091 280.874 L 274.500 279.748 276.750 278.899 L 279 278.050 279 255.556 L 279 233.063 284.750 228.835 L 290.500 224.607 295.853 219.062 L 301.205 213.518 303.261 209.509 L 305.317 205.500 306.469 201 L 307.622 196.500 309.774 196.185 L 311.926 195.871 311.350 210.685 L 310.773 225.500 312.374 232.259 L 313.975 239.018 316.473 243.947 L 318.971 248.876 322.235 251.328 L 325.500 253.781 328.587 254.434 L 331.673 255.087 336.320 253.509 L 340.967 251.932 343.934 253.466 L 346.901 255 349.016 255 L 351.131 255 353.316 253.847 L 355.500 252.693 358.914 249.899 L 362.328 247.105 364.098 248.053 L 365.869 249 367.931 249 L 369.994 249 374.139 245.256 L 378.284 241.511 380.628 237.798 L 382.972 234.085 386.546 225.155 L 390.119 216.226 392.931 215.664 L 395.742 215.102 397.441 210.855 L 399.141 206.608 399.691 201.963 L 400.241 197.319 399.085 195.159 L 397.930 193 396.671 193 L 395.412 193 395.417 180.250 L 395.422 167.500 394.130 163.092 L 392.838 158.684 389.996 155.842 L 387.154 153 384.590 153 L 382.027 153 380.460 149.250 L 378.894 145.500 376.297 142.789 L 373.700 140.078 369.552 139.456 L 365.404 138.834 363.452 135.897 L 361.500 132.961 357.217 130.875 L 352.934 128.790 349.611 129.413 L 346.287 130.037 341.612 133.134 L 336.937 136.230 332.585 142.365 L 328.234 148.500 324.743 155.500 L 321.253 162.500 318.930 169.750 L 316.606 177 315.053 176.986 L 313.500 176.973 311.250 176.370 L 309 175.767 309 173.284 L 309 170.802 307.422 167.476 L 305.844 164.151 302.546 161.891 L 299.249 159.632 297.498 154.077 L 295.747 148.522 293.472 145.174 L 291.198 141.827 288.997 140.285 L 286.795 138.743 283.400 137.977 L 280.004 137.212 275.775 138.162 L 271.545 139.112 267.681 136.941 L 263.817 134.769 258.943 134.769 L 254.069 134.769 249.728 137.313 L 245.387 139.857 243.944 138.944 L 242.500 138.031 238.151 138.015 L 233.802 138 230.309 139.658 L 226.816 141.315 226.367 142.486 L 225.917 143.658 220.709 143.273 L 215.500 142.889 212.299 144.900 L 209.097 146.912 207.503 149.993 L 205.910 153.075 204.080 163.079 L 202.251 173.083 201.646 173.687 L 201.041 174.292 193.771 175.594 L 186.500 176.895 184.933 176.947 L 183.365 177 181.582 171.250 L 179.798 165.500 175.920 157.156 L 172.042 148.813 167.613 142.606 L 163.184 136.400 159.342 133.756 L 155.500 131.112 152.685 130.056 L 149.870 129 148.185 129.022 L 146.500 129.044 142.366 130.921 M 141.298 134.403 L 138.442 136.806 137.052 139.403 L 135.662 142 132.054 142 L 128.445 142 126.437 143.406 L 124.430 144.812 122.125 149.733 L 119.820 154.653 115.660 155.577 L 111.500 156.500 109.500 160.500 L 107.500 164.500 107.603 181.500 L 107.706 198.500 110.251 208.074 L 112.795 217.648 115.953 225.232 L 119.110 232.816 122.805 238.068 L 126.500 243.321 129.305 245.397 L 132.111 247.473 135.172 245.716 L 138.232 243.960 142.594 247.980 L 146.955 252 150.823 252 L 154.690 252 156.464 250.040 L 158.237 248.080 162.079 250.040 L 165.920 252 169.325 252 L 172.730 252 175.365 249.927 L 178 247.855 178 246.868 L 178 245.882 177.044 246.473 L 176.088 247.064 172.749 245.669 L 169.411 244.274 165.139 239.421 L 160.867 234.567 157.513 227.534 L 154.160 220.500 151.072 211 L 147.985 201.500 146.284 193 L 144.583 184.500 144.542 168.500 L 144.500 152.500 146.321 147.280 L 148.141 142.059 151.253 139.441 L 154.364 136.823 157.182 137.386 L 160 137.950 160 137.511 L 160 137.072 156.268 134.536 L 152.536 132 148.345 132 L 144.153 132 141.298 134.403 M 343.732 134.536 L 340 137.072 340 137.603 L 340 138.135 342.074 137.477 L 344.147 136.818 347.036 138.015 L 349.924 139.211 351.962 143.421 L 354 147.631 355.118 153.565 L 356.236 159.500 355.655 173 L 355.075 186.500 353.081 195.694 L 351.087 204.889 348.479 212.694 L 345.871 220.500 342.467 227.607 L 339.062 234.715 334.506 239.782 L 329.949 244.850 325.787 246.238 L 321.625 247.625 323.813 249.813 L 326 252 329.480 252 L 332.960 252 336.899 250.424 L 340.838 248.848 343.473 250.574 L 346.109 252.301 349.164 252.214 L 352.220 252.128 357.086 248.025 L 361.951 243.922 364.341 245.488 L 366.730 247.053 369.218 246.107 L 371.706 245.161 375.188 241.094 L 378.669 237.027 381.717 230.763 L 384.765 224.500 387.402 216.136 L 390.040 207.771 391.623 198.636 L 393.207 189.500 392.816 177 L 392.425 164.500 390.462 160.500 L 388.500 156.500 384.260 155.560 L 380.020 154.620 378.356 150.261 L 376.691 145.902 374.211 143.951 L 371.730 142 368.034 142 L 364.338 142 362.948 139.403 L 361.558 136.806 358.702 134.403 L 355.847 132 351.655 132 L 347.464 132 343.732 134.536 M 145.418 133.969 L 143.337 134.811 140.677 137.972 L 138.017 141.133 136.563 146.317 L 135.108 151.500 134.408 157.493 L 133.709 163.487 135.306 162.161 L 136.904 160.835 138.897 161.467 L 140.891 162.100 141.506 158.300 L 142.121 154.500 143.101 149.995 L 144.082 145.489 146.310 141.495 L 148.538 137.500 150.769 136.513 L 153 135.526 153 134.880 L 153 134.233 150.750 133.630 L 148.500 133.027 148 133.077 L 147.500 133.127 145.418 133.969 M 349.250 133.775 L 347 134.139 347 134.832 L 347 135.526 349.231 136.513 L 351.462 137.500 353.690 141.495 L 355.918 145.489 356.899 149.995 L 357.879 154.500 358.494 158.300 L 359.109 162.100 361.103 161.467 L 363.096 160.835 364.548 162.040 L 366 163.245 365.992 161.372 L 365.985 159.500 364.956 153 L 363.928 146.500 361.476 141.426 L 359.025 136.351 356.762 135.266 L 354.500 134.181 353 133.796 L 351.500 133.411 349.250 133.775 M 251.441 140.582 L 249.500 142.163 251.500 141.468 L 253.500 140.773 255.500 140.358 L 257.500 139.944 255 141.126 L 252.500 142.309 255.500 143.036 L 258.500 143.763 256.725 143.882 L 254.950 144 253.975 146.565 L 253 149.130 253 163.565 L 253 178 255.250 178.035 L 257.500 178.071 255 179.466 L 252.500 180.861 258 181.180 L 263.500 181.500 263.807 186.893 L 264.114 192.286 263.307 193.097 L 262.500 193.907 262.500 188.204 L 262.500 182.500 259.776 182.186 L 257.051 181.872 255.276 182.906 L 253.500 183.939 254.750 183.970 L 256 184 256 189.059 L 256 194.118 255 193.500 L 254 192.882 254 193.941 L 254 195 255.250 195.015 L 256.500 195.031 255.166 195.876 L 253.832 196.722 255.498 197.361 L 257.164 198 259.159 198 L 261.154 198 264.146 195.008 L 267.139 192.015 266.462 184.256 L 265.785 176.497 266.928 164.998 L 268.071 153.500 269.178 148.571 L 270.285 143.642 267.587 141.321 L 264.888 139 259.135 139 L 253.382 139 251.441 140.582 M 152.537 143.372 L 150.165 145.745 149.088 149.622 L 148.011 153.500 148.113 158.500 L 148.215 163.500 149.417 156.244 L 150.619 148.988 152.620 146.307 L 154.622 143.626 155.741 143.253 L 156.861 142.880 160.819 146.456 L 164.777 150.031 168.298 157.266 L 171.819 164.500 174.106 171.750 L 176.394 179 177.697 179 L 179 179 179 178.175 L 179 177.350 176.643 170.425 L 174.285 163.500 171.030 157.055 L 167.775 150.611 165.137 147.236 L 162.500 143.861 159.800 142.431 L 157.099 141 156.004 141 L 154.909 141 152.537 143.372 M 276.471 141.938 L 274.443 142.772 274.202 145.934 L 273.961 149.097 275.230 148.930 L 276.500 148.763 278.715 148.882 L 280.930 149 284.465 152.104 L 288 155.207 288.022 152.354 L 288.044 149.500 289.973 153.750 L 291.902 158 292.951 158 L 294 158 294 155.901 L 294 153.802 292.359 150.345 L 290.719 146.887 287.609 144.553 L 284.500 142.219 281.500 141.662 L 278.500 141.104 276.471 141.938 M 337.588 145.026 L 333.221 149.051 329.542 156.053 L 325.862 163.054 323.425 170.221 L 320.987 177.387 321.977 178.377 L 322.967 179.367 323.317 178.933 L 323.668 178.500 326.922 169 L 330.177 159.500 333.117 154.329 L 336.057 149.157 339.563 146.079 L 343.070 143 343.963 143 L 344.857 143 346.418 144.561 L 347.980 146.123 349.442 151.311 L 350.905 156.500 351.302 159.500 L 351.700 162.500 351.845 158 L 351.989 153.500 350.912 149.622 L 349.835 145.745 347.463 143.372 L 345.091 141 343.523 141 L 341.955 141 337.588 145.026 M 231.750 143.392 L 230 144.720 230 145.428 L 230 146.135 232.250 145.562 L 234.500 144.989 232.250 146.148 L 230 147.306 230 148.153 L 230 149 231.750 149.030 L 233.500 149.061 231.630 150.147 L 229.760 151.234 230.751 151.867 L 231.742 152.500 233.847 164.992 L 235.952 177.484 237.037 177.846 L 238.122 178.207 236.311 180.249 L 234.500 182.291 236.684 181.146 L 238.869 180 241.378 180 L 243.887 180 245.443 182.223 L 247 184.445 246.898 187.473 L 246.795 190.500 246.025 187.256 L 245.255 184.012 244.005 182.506 L 242.755 181 241.078 181 L 239.400 181 238.325 182.075 L 237.251 183.149 238.247 187.075 L 239.244 191.001 237.910 192.609 L 236.575 194.216 238.538 195.653 L 240.500 197.089 243 196.482 L 245.500 195.874 247.415 193.994 L 249.329 192.115 248.151 175.307 L 246.973 158.500 246.986 152.885 L 247 147.270 244.927 144.635 L 242.855 142 238.177 142.032 L 233.500 142.064 231.750 143.392 M 127.126 146.874 L 125.130 148.870 124.043 152.685 L 122.956 156.500 122.351 160.690 L 121.745 164.880 124.022 164.284 L 126.299 163.689 127.650 165.535 L 129 167.382 129 175.092 L 129 182.801 130.952 194.151 L 132.903 205.500 135.911 215.500 L 138.918 225.500 137.209 226.795 L 135.500 228.089 133.209 227.515 L 130.918 226.941 132.585 230.221 L 134.251 233.500 138.612 239.660 L 142.973 245.820 146.354 247.910 L 149.736 250 151.677 250 L 153.618 250 155.522 248.607 L 157.427 247.215 153.907 243.318 L 150.386 239.422 147.091 234.633 L 143.796 229.844 141.458 224.089 L 139.119 218.334 136.525 208.099 L 133.931 197.864 132.471 188.182 L 131.012 178.500 131.023 170.500 L 131.035 162.500 132.594 155.500 L 134.154 148.500 134.327 147 L 134.500 145.500 131.811 145.189 L 129.121 144.879 127.126 146.874 M 365.856 145.477 L 365.379 145.954 367.242 154.727 L 369.105 163.500 368.625 175 L 368.145 186.500 366.027 197.299 L 363.909 208.099 360.902 217.299 L 357.896 226.500 355.408 230.746 L 352.921 234.991 347.801 241.143 L 342.682 247.294 344.532 248.647 L 346.382 250 348.323 250 L 350.264 250 353.646 247.910 L 357.027 245.820 361.388 239.660 L 365.749 233.500 367.323 230.398 L 368.898 227.297 366.699 227.707 L 364.500 228.117 362.791 226.808 L 361.082 225.500 364.089 215.500 L 367.097 205.500 369.048 194.151 L 371 182.801 371 175.092 L 371 167.382 372.350 165.535 L 373.701 163.689 375.850 164.251 L 378 164.813 378 162.512 L 378 160.211 375.965 153.622 L 373.930 147.033 372.031 146.016 L 370.131 145 368.232 145 L 366.333 145 365.856 145.477 M 215.992 147.799 L 212.668 149.500 211.084 151.994 L 209.500 154.488 212.385 152.244 L 215.270 150 216.826 150 L 218.382 150 216.441 151.468 L 214.500 152.936 215.719 152.968 L 216.937 153 216.396 154.410 L 215.855 155.819 217.548 159.160 L 219.241 162.500 220.686 164.151 L 222.130 165.801 221.065 166.460 L 220 167.118 220 168.082 L 220 169.046 222.260 167.566 L 224.519 166.085 225.697 166.813 L 226.875 167.541 227.937 170.335 L 229 173.130 228.948 174.315 L 228.897 175.500 227.342 171.750 L 225.786 168 224.441 168 L 223.096 168 224.450 172.500 L 225.804 177 224.484 177 L 223.164 177 221.532 176.374 L 219.901 175.748 217.450 172.142 L 215 168.536 215 169.620 L 215 170.704 217.280 174.088 L 219.560 177.471 221.905 178.640 L 224.250 179.809 227.125 178.807 L 230 177.804 230 176.037 L 230 174.269 227.451 162.977 L 224.902 151.686 223.928 149.866 L 222.954 148.046 221.134 147.072 L 219.315 146.098 215.992 147.799 M 274.200 151.200 L 273 152.400 273 156.740 L 273 161.080 274.908 164.790 L 276.817 168.500 279.658 171.136 L 282.500 173.772 285.700 175.386 L 288.901 177 293.200 177.035 L 297.500 177.071 295.219 178.337 L 292.937 179.604 293.635 180.302 L 294.333 181 291.261 181 L 288.188 181 286.713 185.330 L 285.237 189.659 286.545 192.770 L 287.853 195.881 286.390 195.319 L 284.926 194.758 283.261 191.629 L 281.596 188.500 280.916 191.500 L 280.237 194.500 280.087 192 L 279.936 189.500 278.718 191 L 277.500 192.500 273.341 192.197 L 269.183 191.894 266.360 195.595 L 263.537 199.295 260.183 200.697 L 256.828 202.099 253.376 200.959 L 249.923 199.819 248.394 201.088 L 246.864 202.357 244.976 205.929 L 243.088 209.500 243.044 208.218 L 243 206.936 244.500 203.346 L 246 199.756 246 199.378 L 246 199 241.577 199 L 237.153 199 234.095 196.427 L 231.037 193.853 228.769 194.564 L 226.500 195.275 218.750 198.225 L 211 201.175 211 202.928 L 211 204.681 214.064 210.811 L 217.127 216.942 221.710 220.976 L 226.292 225.009 231.328 226.505 L 236.363 228 240.482 228 L 244.600 228 245.800 229.200 L 247 230.400 247 229.400 L 247 228.400 246.112 227.450 L 245.225 226.500 244.480 224.047 L 243.736 221.593 245.446 223.303 L 247.156 225.013 249.221 226.118 L 251.285 227.223 257.629 227.186 L 263.973 227.150 269.736 225.495 L 275.500 223.841 281.608 220.451 L 287.716 217.061 292.913 212.388 L 298.111 207.715 300.677 202.651 L 303.243 197.586 304.258 186.428 L 305.273 175.270 304.584 171.594 L 303.894 167.918 297.837 163.459 L 291.780 159 290.998 159 L 290.217 159 289.597 161.471 L 288.976 163.942 287.002 164.999 L 285.028 166.055 280.974 163.987 L 276.920 161.919 275.787 159.433 L 274.655 156.947 276.311 153.474 L 277.968 150 276.684 150 L 275.400 150 274.200 151.200 M 277.975 152.565 L 277 155.130 277 157.023 L 277 158.916 281.338 161.458 L 285.676 164 286.303 164 L 286.930 164 287.995 162.009 L 289.061 160.018 287.628 157.259 L 286.195 154.500 283.138 152.250 L 280.081 150 279.516 150 L 278.950 150 277.975 152.565 M 113.400 158.765 L 112.299 159.500 111.150 161.684 L 110 163.869 110 165.969 L 110 168.070 112.021 166.989 L 114.041 165.908 114.871 166.420 L 115.701 166.933 116.278 180.716 L 116.856 194.500 118.448 202 L 120.041 209.500 123.142 218.866 L 126.242 228.232 124.871 229.129 L 123.500 230.026 121.750 229.607 L 120 229.187 120 229.984 L 120 230.780 124.454 236.830 L 128.908 242.880 130.954 243.975 L 133 245.070 135 244 L 137 242.930 137 242.455 L 137 241.981 132.583 233.740 L 128.166 225.500 125.120 216.775 L 122.074 208.050 120.419 199.275 L 118.764 190.500 118.777 177.366 L 118.790 164.231 119.475 161.116 L 120.159 158 117.329 158.015 L 114.500 158.031 113.400 158.765 M 380.546 162.250 L 381.268 166.500 381.244 178.500 L 381.219 190.500 379.573 199.275 L 377.926 208.050 374.880 216.775 L 371.834 225.500 367.311 233.936 L 362.788 242.372 364.585 243.686 L 366.382 245 367.114 245 L 367.847 245 371.091 242.270 L 374.336 239.539 377.168 235.074 L 380 230.608 380 229.943 L 380 229.277 377.617 229.733 L 375.234 230.188 374.543 229.070 L 373.851 227.951 376.905 218.725 L 379.959 209.500 381.552 202 L 383.144 194.500 383.724 180.660 L 384.304 166.821 385.665 166.298 L 387.025 165.776 388.537 167.031 L 390.048 168.285 390.435 167.893 L 390.821 167.500 389.477 163.600 L 388.133 159.700 386.816 158.865 L 385.500 158.031 382.662 158.015 L 379.824 158 380.546 162.250 M 270.385 169.527 L 269.298 173 270.399 172.985 L 271.500 172.969 272.850 172.114 L 274.199 171.259 272.836 168.656 L 271.472 166.054 270.385 169.527 M 162.911 175.681 L 161.819 178.500 162.224 187.500 L 162.630 196.500 164.931 201 L 167.233 205.500 168.771 207.250 L 170.310 209 172.548 209 L 174.786 209 175.393 207.418 L 176 205.836 175.968 204.668 L 175.936 203.500 174.458 205.455 L 172.980 207.409 171.490 205.918 L 169.999 204.427 167.880 198.464 L 165.761 192.500 165.233 183.595 L 164.705 174.690 166.910 175.266 L 169.114 175.843 168.729 174.671 L 168.343 173.500 166.173 173.181 L 164.003 172.861 162.911 175.681 M 271 174 L 269.500 174.969 270.750 174.985 L 272 175 272 179 L 272 183 271.139 183 L 270.277 183 270.770 185.576 L 271.262 188.151 273.881 187.533 L 276.500 186.915 278.263 184.831 L 280.025 182.747 280.639 180.300 L 281.254 177.854 280.085 176.685 L 278.917 175.517 278.012 176.980 L 277.108 178.444 276.377 176.472 L 275.646 174.500 274.573 173.765 L 273.500 173.031 273 173.031 L 272.500 173.031 271 174 M 331.667 173.667 L 331 174.333 331 175.211 L 331 176.088 332.750 175.794 L 334.500 175.500 334.445 183.500 L 334.389 191.500 332.581 197 L 330.773 202.500 329.308 204.834 L 327.844 207.168 325.922 205.429 L 324 203.690 324 204.763 L 324 205.836 324.607 207.418 L 325.214 209 327.452 209 L 329.690 209 331.229 207.250 L 332.767 205.500 335.074 201 L 337.381 196.500 337.801 186.891 L 338.221 177.282 337.075 175.141 L 335.930 173 334.131 173 L 332.333 173 331.667 173.667 M 191 178.518 L 177.500 180.885 173.536 181.729 L 169.573 182.574 168.970 185.037 L 168.367 187.500 169.110 190.891 L 169.853 194.281 171.339 195.768 L 172.826 197.255 189.163 194.161 L 205.500 191.067 216.250 189.854 L 227 188.640 227 187.820 L 227 187 224.551 187 L 222.102 187 210.301 188.536 L 198.500 190.073 186.279 192.536 L 174.057 195 173.145 195 L 172.233 195 171.656 192.794 L 171.079 190.587 171.407 190.260 L 171.734 189.933 184.617 187.432 L 197.500 184.932 207.500 183.484 L 217.500 182.037 218.937 182.018 L 220.374 182 217.500 179 L 214.626 176 209.563 176.076 L 204.500 176.152 191 178.518 M 309 182.481 L 309 185.962 311.250 186.484 L 313.500 187.006 320.815 188.503 L 328.131 190 328.565 190 L 329 190 329 191.378 L 329 192.755 327.540 193.967 L 326.080 195.179 319.093 193.589 L 312.105 192 309.853 192 L 307.600 192 308.550 192.860 L 309.500 193.720 318.465 195.454 L 327.430 197.188 329.215 194.983 L 331 192.778 331.115 190.139 L 331.230 187.500 331.017 185.500 L 330.804 183.500 330.433 183.114 L 330.062 182.729 321.281 180.882 L 312.500 179.034 310.750 179.017 L 309 179 309 182.481 M 103 200.540 L 103 206.080 105.038 210.075 L 107.077 214.071 108.056 213.465 L 109.035 212.860 107.018 210.295 L 105 207.730 105 205.448 L 105 203.167 105.844 202.833 L 106.688 202.500 106.235 198.750 L 105.781 195 104.391 195 L 103 195 103 200.540 M 394.616 196.083 L 394.167 197.500 393.564 200.250 L 392.962 203 393.981 203 L 395 203 395 205.066 L 395 207.131 393.850 209.316 L 392.701 211.500 391.744 212.125 L 390.786 212.750 391.849 213.407 L 392.912 214.064 394.651 211.410 L 396.390 208.756 396.821 202.803 L 397.251 196.851 396.158 195.758 L 395.066 194.666 394.616 196.083 M 181.865 197.500 L 181.700 198.500 181.600 215 L 181.500 231.500 179.672 235.673 L 177.845 239.846 176.222 240.468 L 174.599 241.091 172.049 239.203 L 169.500 237.314 166.500 233.302 L 163.500 229.289 162.278 227.394 L 161.056 225.500 161.691 227.500 L 162.326 229.500 165.640 234.569 L 168.954 239.637 171.328 240.908 L 173.702 242.178 176.066 241.839 L 178.431 241.500 180.628 238.232 L 182.826 234.963 184.017 227.901 L 185.208 220.838 184.504 210.067 L 183.801 199.296 182.916 197.898 L 182.031 196.500 181.865 197.500 M 316.364 200.648 L 315.599 204.500 315.596 216.500 L 315.593 228.500 316.800 232.619 L 318.007 236.739 320.076 239.369 L 322.145 242 324.883 242 L 327.620 242 330.896 238.797 L 334.172 235.595 336.830 230.547 L 339.489 225.500 339.842 224.500 L 340.195 223.500 335.656 230.131 L 331.117 236.763 328.547 238.785 L 325.976 240.807 324.055 240.304 L 322.134 239.802 320.317 236.151 L 318.500 232.500 318.500 215.335 L 318.500 198.170 317.814 197.483 L 317.129 196.796 316.364 200.648 M 150.438 224.101 L 149.757 225.201 146.870 224.624 L 143.983 224.047 145.898 227.799 L 147.812 231.552 152.600 237.921 L 157.387 244.290 161.889 247.145 L 166.392 250 169.529 250 L 172.667 250 173.306 249.361 L 173.945 248.722 169.986 246.763 L 166.027 244.804 162.655 240.152 L 159.283 235.500 155.891 229.262 L 152.500 223.024 151.809 223.012 L 151.118 223 150.438 224.101 M 343.662 230.484 L 339.825 237.960 334.332 242.980 L 328.839 248 327.919 248 L 327 248 327 249 L 327 250 330.304 250 L 333.608 250 338.278 247.039 L 342.947 244.078 347.579 237.789 L 352.211 231.500 354.114 227.773 L 356.017 224.047 353.130 224.624 L 350.243 225.201 349.562 224.101 L 348.882 223 348.191 223.004 L 347.500 223.009 343.662 230.484 M 268 234.621 L 263.500 236.044 256.250 236.669 L 249 237.293 248.840 246.897 L 248.680 256.500 248.344 253 L 248.007 249.500 247.424 243.250 L 246.841 237 243.920 237 L 241 237 240.874 251.750 L 240.747 266.500 239.511 258 L 238.275 249.500 237.569 242.853 L 236.863 236.207 234.181 235.692 L 231.500 235.177 230.250 236.211 L 229 237.245 229 256.561 L 229 275.877 233.602 276.568 L 238.205 277.258 253.852 276.757 L 269.500 276.255 272.250 275.152 L 275 274.050 275 253.525 L 275 233 273.750 233.099 L 272.500 233.198 268 234.621 M 154.748 298.069 L 150.995 300.050 148.248 304.202 L 145.500 308.354 145.500 316 L 145.500 323.646 148.323 327.911 L 151.145 332.177 155.722 334.201 L 160.299 336.226 165.022 335.772 L 169.744 335.318 172.887 333.080 L 176.030 330.842 177.591 327.825 L 179.151 324.807 179.926 319.904 L 180.701 315 172.351 315 L 164 315 164 318 L 164 321 168 321 L 172 321 172 321.550 L 172 322.099 170.537 324.928 L 169.074 327.758 167.455 328.379 L 165.836 329 162.605 329 L 159.374 329 156.521 326.022 L 153.668 323.044 153.222 317.660 L 152.775 312.276 154.465 308.715 L 156.155 305.155 159.386 303.621 L 162.618 302.087 165.059 302.679 L 167.500 303.271 170.102 305.681 L 172.705 308.092 175.352 306.885 L 178 305.679 178 304.527 L 178 303.374 175.250 300.809 L 172.500 298.244 170.316 297.122 L 168.131 296 163.316 296.044 L 158.500 296.088 154.748 298.069 M 221.502 297.575 L 218.504 299.138 216.646 300.819 L 214.787 302.500 212.894 306.210 L 211 309.920 211.022 315.710 L 211.044 321.500 212.881 325.500 L 214.718 329.500 216.645 331.212 L 218.573 332.924 222.254 334.462 L 225.936 336 229.500 336 L 233.064 336 236.746 334.462 L 240.427 332.924 242.320 331.212 L 244.213 329.500 246.208 325.591 L 248.203 321.683 247.836 314.415 L 247.469 307.147 244.413 303.323 L 241.358 299.500 237.929 297.752 L 234.500 296.003 229.500 296.008 L 224.500 296.012 221.502 297.575 M 270.114 302.688 L 268.106 309.500 266.374 315.805 L 264.641 322.111 263.948 320.805 L 263.255 319.500 259.998 308.250 L 256.741 297 252.870 297 L 249 297 249 297.351 L 249 297.702 249.944 300.601 L 250.887 303.500 256.006 319.810 L 261.124 336.121 263.798 335.810 L 266.472 335.500 269.564 325 L 272.656 314.500 273.196 313 L 273.735 311.500 277.553 323.750 L 281.371 336 284.113 336 L 286.854 336 292.643 318.540 L 298.431 301.079 298.974 301.958 L 299.517 302.837 303.009 303.169 L 306.500 303.500 306.775 319.250 L 307.051 335 310.525 335 L 314 335 314 319 L 314 303 318 303 L 322 303 322 299.974 L 322 296.948 306.828 297.224 L 291.657 297.500 288.136 309.724 L 284.615 321.948 284.245 321.578 L 283.875 321.208 280.157 308.854 L 276.440 296.500 274.281 296.188 L 272.121 295.877 270.114 302.688 M 184 316 L 184 335 187.956 335 L 191.912 335 192.206 327.974 L 192.500 320.949 196.553 327.724 L 200.607 334.500 205.373 334.808 L 210.139 335.115 204.956 327.435 L 199.774 319.755 202.293 317.628 L 204.812 315.500 205.906 313.316 L 207 311.131 207 307.466 L 207 303.800 203.600 300.400 L 200.200 297 192.100 297 L 184 297 184 316 M 324 316 L 324 335 328 335 L 332 335 332 326.500 L 332 318 339 318 L 346 318 346 326.500 L 346 335 349.500 335 L 353 335 353 316 L 353 297 349.500 297 L 346 297 346 304.500 L 346 312 339 312 L 332 312 332 304.500 L 332 297 328 297 L 324 297 324 316 M 192 308.566 L 192 314.133 194.718 313.816 L 197.437 313.500 198.909 310.865 L 200.381 308.230 198.667 305.615 L 196.954 303 194.477 303 L 192 303 192 308.566 M 225.096 304.215 L 222.693 305.500 220.655 308.244 L 218.618 310.989 218.693 315.994 L 218.769 320.998 220.462 323.583 L 222.156 326.167 225.586 327.600 L 229.017 329.034 231.758 328.386 L 234.500 327.738 236.761 325.684 L 239.022 323.630 240.106 319.605 L 241.190 315.579 240.112 311.980 L 239.034 308.380 236.660 306.151 L 234.287 303.921 230.893 303.426 L 227.500 302.931 225.096 304.215 M 219.036 366.250 L 217.891 373.500 217.366 376.250 L 216.841 379 220.786 379 L 224.730 379 227.365 376.927 L 230 374.855 230 372.999 L 230 371.143 228.492 369.635 L 226.985 368.128 227.992 367.505 L 229 366.882 229 364.141 L 229 361.400 227.800 360.200 L 226.600 359 223.390 359 L 220.181 359 219.036 366.250 M 234.121 367.250 L 232.895 375.500 232.380 377.250 L 231.865 379 235.933 379 L 240 379 240 378 L 240 377 237.500 377 L 235 377 235.020 376.250 L 235.040 375.500 236.381 367.250 L 237.723 359 236.534 359 L 235.346 359 234.121 367.250 M 247.844 361.255 L 245.188 363.500 244.094 365.684 L 243 367.869 243 370.980 L 243 374.091 245.455 376.545 L 247.909 379 252.072 379 L 256.235 379 260.118 375.118 L 264 371.235 264 367.572 L 264 363.909 261.545 361.455 L 259.091 359 254.795 359.005 L 250.500 359.010 247.844 361.255 M 269.400 362.400 L 266 365.800 266 370.226 L 266 374.651 268.314 376.826 L 270.629 379 274.410 379 L 278.191 379 280.997 377.002 L 283.803 375.004 284.849 372.002 L 285.896 369 281.448 369 L 277 369 277 369.937 L 277 370.873 280.250 371.187 L 283.500 371.500 280.795 374.250 L 278.091 377 275.045 377 L 272 377 270 375 L 268 373 268 369.923 L 268 366.846 270.923 363.923 L 273.846 361 277.301 361 L 280.755 361 282 362.500 L 283.245 364 284.122 364 L 285 364 285 362.535 L 285 361.070 283.066 360.035 L 281.131 359 276.966 359 L 272.800 359 269.400 362.400 M 221.628 364.108 L 220.986 367.319 221.489 367.822 L 221.992 368.325 224.564 367.153 L 227.137 365.981 226.818 363.740 L 226.500 361.500 224.385 361.198 L 222.271 360.896 221.628 364.108 M 247.923 363.923 L 245 366.846 245 369.923 L 245 373 247 375 L 249 377 251.984 377 L 254.968 377 257.949 374.250 L 260.929 371.500 261.521 368.957 L 262.113 366.413 259.984 363.707 L 257.855 361 254.350 361 L 250.846 361 247.923 363.923 M 220.667 370.667 L 220 371.333 220 374.167 L 220 377 222.443 377 L 224.887 377 226.415 374.818 L 227.943 372.636 226.849 371.318 L 225.755 370 223.544 370 L 221.333 370 220.667 370.667" stroke="none" fill="#1c1b2e" fill-rule="evenodd"/></svg>